<svg width="1058" height="785" viewBox="0 0 1058 785" fill="none" xmlns="http://www.w3.org/2000/svg">
<g id="undraw_ride_a_bicycle_-2-yok 1" clip-path="url(#clip0_2:2)">
<path id="Vector" opacity="0.1" d="M209.802 115.432C204.322 122.082 202.212 131.432 199.852 140.222C180.852 211.062 134.032 268.042 80.7121 308.742C58.1321 325.982 30.6421 349.102 35.5821 380.012C38.2421 396.612 49.9121 408.832 58.5821 422.352C76.7721 450.662 82.6721 489.142 74.0021 523.032C64.1421 561.592 36.5821 597.572 45.1121 636.562C50.3721 660.562 68.2321 677.642 85.4021 692.322C112.189 715.209 139.829 736.649 168.322 756.642C187.422 770.042 207.742 783.082 230.002 784.782C249.602 786.282 268.802 778.832 287.412 771.482C303.672 765.052 320.342 758.362 333.472 745.482C342.042 737.072 348.872 726.222 358.392 719.342C380.752 703.182 409.472 713.422 435.112 720.342C495.612 736.582 560.362 730.652 617.932 703.602C706.242 662.102 773.552 574.952 859.932 528.192C897.072 508.082 937.472 495.602 971.862 469.702C991.237 454.956 1007.89 436.938 1021.06 416.462C1047.06 376.352 1061.12 325.212 1057.06 275.152C1053 225.092 1030.25 176.852 994.522 148.592C956.272 118.342 907.962 112.692 864.442 94.5322C819.502 75.7722 779.522 43.5322 735.012 23.4022C698.996 7.15881 659.8 -0.814994 620.3 0.0657808C580.8 0.946555 541.998 10.6596 506.742 28.4922C458.302 52.9922 409.202 110.152 355.252 114.492C316.812 117.492 239.822 79.0122 209.802 115.432Z" fill="url(#paint0_linear_2:2)"/>
<g id="left-wheel">
<path id="Vector_2" d="M259.653 721.776L253.383 623.836L253.253 623.626L246.933 625.826L217.853 710.676L171.603 677.886L245.273 624.476L245.343 624.266L245.763 624.116L250.513 620.666L173.273 577.356L154.353 598.156L157.353 617.656L246.173 619.276V621.276L155.693 619.656L152.273 597.516L178.173 569.056L216.923 523.856L217.613 525.726L225.813 516.726L256.273 522.186V520.976L258.273 521.036V522.546L303.633 530.666L261.343 615.276L255.173 619.746V620.246V620.806L352.973 586.726L341.363 677.936L258.363 625.066L255.443 623.426L304.383 702.306L259.653 721.776ZM255.653 627.436L261.503 718.816L301.553 701.436L255.653 627.436ZM175.073 677.866L216.863 707.496L244.203 627.756L175.073 677.866ZM257.393 622.206L259.483 623.376L339.833 674.576L350.633 589.706L257.393 622.206ZM250.293 615.006L252.803 619.056L253.243 618.736L256.243 524.206L226.503 518.886L218.343 527.886L250.293 615.006ZM174.873 575.946L249.713 617.946L248.413 615.816L216.833 529.546L179.643 570.416L174.873 575.946ZM258.273 524.556L255.273 617.276L259.793 613.996L300.703 532.176L258.273 524.556Z" fill="#535461"/>
<path id="Vector_3" d="M369.415 594.738C365.405 576.919 357.285 560.283 345.705 546.158C341.406 540.909 336.666 536.038 331.535 531.598C311.809 514.567 286.986 504.568 260.962 503.17C234.938 501.771 209.187 509.053 187.749 523.873C166.311 538.693 150.401 560.211 142.515 585.05C134.629 609.89 135.214 636.645 144.178 661.116C153.142 685.587 169.978 706.39 192.042 720.258C214.107 734.127 240.152 740.277 266.09 737.743C292.028 735.208 316.39 724.134 335.353 706.257C354.317 688.379 366.807 664.712 370.865 638.968C371.809 632.907 372.284 626.783 372.285 620.648C372.292 611.932 371.329 603.242 369.415 594.738ZM254.225 709.088C235.993 709.069 218.209 703.435 203.292 692.953C188.374 682.47 177.047 667.648 170.851 650.501C164.655 633.354 163.89 614.715 168.66 597.118C173.43 579.521 183.505 563.82 197.513 552.15C211.521 540.48 228.783 533.408 246.953 531.895C265.122 530.381 283.316 534.501 299.062 543.693C314.807 552.884 327.34 566.703 334.956 583.268C342.571 599.834 344.9 618.343 341.625 636.278C337.875 656.722 327.076 675.203 311.107 688.506C295.137 701.809 275.01 709.093 254.225 709.088V709.088Z" fill="#535461"/>
<path id="Vector_4" d="M254.153 633.056C261.228 633.056 266.963 627.321 266.963 620.246C266.963 613.172 261.228 607.436 254.153 607.436C247.078 607.436 241.343 613.172 241.343 620.246C241.343 627.321 247.078 633.056 254.153 633.056Z" fill="#535461"/>
</g>
<g id="man-bike">
<path id="Vector_5" d="M387 554.303L344.293 512.159L330.947 525.683L373.654 567.827L387 554.303Z" fill="#6C63FF"/>
<path id="Vector_6" opacity="0.1" d="M387 554.303L344.293 512.159L330.947 525.683L373.654 567.827L387 554.303Z" fill="black"/>
<path id="Vector_7" d="M354.48 491.99C354.48 491.99 379.27 478.91 388.85 470.49C394.617 465.444 400.818 460.917 407.38 456.96L438.48 438.03L503.48 433.03L506.48 444.03C506.48 444.03 511.48 460.03 461.48 474.03C411.48 488.03 386.48 510.03 386.48 510.03C386.48 510.03 354.48 520.99 354.48 491.99Z" fill="#DB8B8B"/>
<path id="Vector_8" opacity="0.1" d="M389.13 507.86C387.36 509.21 386.48 509.99 386.48 509.99C386.48 509.99 354.48 520.99 354.48 491.99C354.48 491.99 356.03 491.17 358.48 489.8C360.955 493.831 364.423 497.16 368.551 499.469C372.679 501.778 377.33 502.99 382.06 502.99H385.45L389.13 507.86Z" fill="black"/>
<path id="Vector_9" opacity="0.05" d="M505.54 449.55C502.76 455.44 493.17 465.12 461.48 473.99C420.87 485.36 396.75 501.99 389.13 507.86C387.36 509.21 386.48 509.99 386.48 509.99C386.48 509.99 354.48 520.99 354.48 491.99C354.48 491.99 356.03 491.17 358.48 489.8C365.91 485.73 381.64 476.8 388.82 470.45C394.586 465.403 400.787 460.875 407.35 456.92L438.45 437.99L450.03 437.1L503.45 432.99L506.45 443.99C506.45 443.99 507.15 446.14 505.54 449.55Z" fill="black"/>
<path id="Vector_10" d="M354.98 485.49L328.48 502.99L406.08 567.99C406.08 567.99 417.48 560.99 411.48 552.99C411.48 552.99 391.48 535.99 390.48 511.99L384.48 503.99H381.09C375.358 503.991 369.767 502.211 365.089 498.897C360.412 495.583 356.88 490.898 354.98 485.49V485.49Z" fill="#ABB1D1"/>
<path id="Vector_11" opacity="0.1" d="M505.54 449.55C489.54 441.82 450.48 440.99 450.48 440.99L450.06 437.1L503.48 432.99L506.48 443.99C506.48 443.99 507.15 446.14 505.54 449.55Z" fill="black"/>
<path id="Vector_12" d="M450.48 438.99C450.48 438.99 497.48 439.99 509.48 449.99L503.48 328.99H438.48L450.48 438.99Z" fill="#ABB1D1"/>
<path id="Vector_13" opacity="0.05" d="M450.48 438.49C450.48 438.49 497.48 439.49 509.48 449.49L503.48 328.49H438.48L450.48 438.49Z" fill="black"/>
<path id="Vector_14" d="M488.24 364.95C488.24 364.95 605.89 360.95 608.29 376.16C610.69 391.37 490.64 384.96 490.64 384.96C490.64 384.96 481.04 375.35 488.24 364.95Z" fill="#535461"/>
<path id="Vector_15" opacity="0.05" d="M488.24 364.95C488.24 364.95 605.89 360.95 608.29 376.16C610.69 391.37 490.64 384.96 490.64 384.96C490.64 384.96 481.04 375.35 488.24 364.95Z" fill="black"/>
<path id="Vector_16" d="M393 425.78H372.19V606.66H393V425.78Z" fill="#6C63FF"/>
<path id="Vector_17" opacity="0.1" d="M393 425.77V439.7C386.08 440.6 379 441.17 372.19 441.39V425.77H393Z" fill="black"/>
<path id="Vector_18" d="M391.44 410.78C388.52 410.554 385.616 410.164 382.74 409.61C371.46 407.45 343.02 402.92 335.37 410.61C325.77 420.21 328.97 437.02 354.58 439.42C380.19 441.82 424.21 435.42 433.02 425.81C433.02 425.77 417.09 412.75 391.44 410.78Z" fill="#535461"/>
<path id="Vector_19" d="M387.4 475.4L605.9 407.37L613.1 424.18L389 501.01L387.4 475.4Z" fill="#6C63FF"/>
<path id="Vector_20" d="M452.23 582.65L609.9 427.38L618.7 440.18L468.23 597.05L452.23 582.65Z" fill="#6C63FF"/>
<path id="Vector_21" opacity="0.1" d="M653.58 529.85C648.584 531.142 643.712 532.872 639.02 535.02L629.46 508.31C634.477 506.123 639.644 504.295 644.92 502.84L653.58 529.85Z" fill="black"/>
<path id="Vector_22" d="M680.33 608.26L669.13 614.66L590.99 396.33L587.49 386.56L605.9 376.15L610.51 390.53L680.33 608.26Z" fill="#6C63FF"/>
<path id="Vector_23" opacity="0.1" d="M610.51 390.53L590.99 396.33L587.49 386.56L605.9 376.15L610.51 390.53Z" fill="black"/>
<path id="Vector_24" d="M491.44 407.37L601.09 369.75C601.09 369.75 620.3 372.15 613.09 388.16L502.65 420.97C502.65 420.97 485.85 422.57 491.44 407.37Z" fill="#535461"/>
<path id="Vector_25" opacity="0.1" d="M367.79 615.86C367.789 621.994 367.314 628.119 366.37 634.18C356.77 633.49 346.85 632.49 337.13 631.49C339.289 619.599 339.021 607.394 336.34 595.61C345.81 593.61 355.48 591.7 364.92 589.97C366.833 598.467 367.795 607.15 367.79 615.86V615.86Z" fill="black"/>
<path id="Vector_26" opacity="0.1" d="M393 585.38V606.65H372.19V588.65C379.39 587.4 386.39 586.29 393 585.38Z" fill="black"/>
<path id="Vector_27" d="M258.54 615.49C258.54 615.49 426.62 571.49 440.22 588.28C453.82 605.07 468.23 627.49 425.85 635.49C383.47 643.49 255.37 621.88 255.37 621.88L258.54 615.49Z" fill="#6C63FF"/>
<path id="Vector_28" opacity="0.1" d="M341.21 541.37L319.85 560.92C316.067 556.064 311.791 551.614 307.09 547.64L327.03 526.81C332.164 531.249 336.908 536.12 341.21 541.37V541.37Z" fill="black"/>
<path id="Vector_29" d="M252.94 606.66L378.59 475.4L382.6 505.81L259.34 618.66L252.94 606.66Z" fill="#6C63FF"/>
<path id="Vector_30" opacity="0.1" d="M448.22 628.27C462.364 628.27 473.83 616.804 473.83 602.66C473.83 588.516 462.364 577.05 448.22 577.05C434.076 577.05 422.61 588.516 422.61 602.66C422.61 616.804 434.076 628.27 448.22 628.27Z" fill="black"/>
<path id="Vector_31" d="M449.83 628.27C463.974 628.27 475.44 616.804 475.44 602.66C475.44 588.516 463.974 577.05 449.83 577.05C435.686 577.05 424.22 588.516 424.22 602.66C424.22 616.804 435.686 628.27 449.83 628.27Z" fill="#535461"/>
<path id="Vector_32" d="M442.992 600.736L442.984 600.742C439.977 602.991 439.362 607.253 441.611 610.26L461.937 637.441C464.186 640.448 468.448 641.063 471.455 638.814L471.463 638.808C474.471 636.559 475.085 632.297 472.836 629.29L452.51 602.109C450.261 599.102 446 598.487 442.992 600.736Z" fill="#6C63FF"/>
<path id="Vector_33" d="M565.48 246.99L563.1 277.1C562.826 280.914 562.876 284.744 563.25 288.55C563.56 291.92 563.25 297.82 559.95 306.82C555.713 318.317 553.523 330.467 553.48 342.72V376.99L530.48 372.99C530.48 372.99 531.48 324.99 527.48 316.99C523.48 308.99 530.48 237.99 530.48 237.99L565.48 246.99Z" fill="#DB8B8B"/>
<path id="Vector_34" opacity="0.05" d="M564.3 261.91L563.1 277.1C562.83 280.911 562.883 284.738 563.26 288.54C563.57 291.91 563.26 297.81 559.96 306.82C555.723 318.317 553.533 330.467 553.49 342.72V376.99L530.49 372.99C530.49 372.99 531.49 324.99 527.49 316.99C524.66 311.32 527.34 274.05 529.15 252.78C529.9 244.03 530.49 237.99 530.49 237.99L565.49 246.99L564.3 261.91Z" fill="black"/>
<path id="Vector_35" d="M451.5 476.99L442.85 526.19C441.759 532.759 440.086 539.218 437.85 545.49C432.78 559.35 436.02 578.78 438.48 589.38C439.57 594.06 440.48 597.02 440.48 597.02L414.48 611.02L406.48 605.02V601.02L405.48 512.02C399.48 498.02 401.48 477.02 405.48 469.02C406.617 466.392 407.417 463.63 407.86 460.8C409.86 450.08 410.48 435.02 410.48 435.02C410.48 435.02 426.48 408.02 445.48 426.02C452.48 432.65 455.14 441.32 455.7 449.62C456.68 463.83 451.5 476.99 451.5 476.99Z" fill="#DB8B8B"/>
<path id="Vector_36" opacity="0.1" d="M455.7 449.59C441.83 457.83 417.7 460.16 407.86 460.77C409.86 450.05 410.48 434.99 410.48 434.99C410.48 434.99 426.48 407.99 445.48 425.99C452.48 432.62 455.14 441.29 455.7 449.59Z" fill="black"/>
<path id="Vector_37" d="M489.48 424.99C478.846 430.653 468.797 437.352 459.48 444.99C443.48 457.99 403.48 458.99 403.48 458.99V443.99C404.48 425.99 387.48 405.99 364.48 349.99C349.79 314.23 353.86 293.99 358.72 283.99C361.48 278.34 364.48 275.99 364.48 275.99L489.48 299.99L493.95 313.39L503.48 341.99C503.48 341.99 468.48 343.99 462.48 346.99C456.48 349.99 460.48 376.99 460.48 376.99C454.48 404.99 489.48 424.99 489.48 424.99Z" fill="#ABB1D1"/>
<path id="Vector_38" opacity="0.1" d="M565.48 246.99L564.3 261.91C546.9 266.91 534.48 250.99 534.48 250.99C532.665 251.477 530.882 252.074 529.14 252.78C529.89 244.03 530.48 237.99 530.48 237.99L565.48 246.99Z" fill="black"/>
<path id="Vector_39" opacity="0.1" d="M493.95 313.39C493.48 318.06 493.48 320.99 493.48 320.99C493.48 320.99 470.48 339.99 431.48 310.99C392.48 281.99 357.48 289.99 357.48 289.99C357.48 289.99 357.89 287.67 358.72 283.99C361.48 278.34 364.48 275.99 364.48 275.99L489.48 299.99L493.95 313.39Z" fill="black"/>
<path id="Vector_40" d="M578.96 207.94C576.35 228.29 575.48 253.94 575.48 253.94C552.48 271.94 534.48 248.94 534.48 248.94C512.76 254.77 502.55 273.78 497.74 290.37C495.164 299.344 493.732 308.607 493.48 317.94C493.48 317.94 487.4 322.94 476.2 323.94C465.61 324.83 450.43 322.07 431.48 307.94C392.48 278.94 357.48 286.94 357.48 286.94C357.48 286.94 364.48 246.94 380.48 234.94C396.48 222.94 408.48 207.94 428.48 161.94C448.48 115.94 489.48 126.94 489.48 126.94C489.48 126.94 491.48 117.94 528.48 126.94C537.492 129.302 545.834 133.721 552.85 139.85C572.64 156.49 582.24 182.3 578.96 207.94Z" fill="white"/>
<path id="Vector_41" d="M541.85 149.49C541.8 150.82 541.69 152.3 541.51 153.95C539.51 171.95 537.51 169.95 515.51 173.95C501.83 176.44 494.72 165.01 491.3 156.01C490.062 152.75 489.128 149.382 488.51 145.95L536.51 137.95C536.51 137.95 542.26 136.34 541.85 149.49Z" fill="#DB8B8B"/>
<path id="Vector_42" opacity="0.05" d="M497.74 290.42C495.164 299.394 493.732 308.657 493.48 317.99C493.48 317.99 487.4 322.99 476.2 323.99C475.884 323.353 475.643 322.682 475.48 321.99C473.48 312.99 458.48 296.99 458.48 296.99C448.48 287.99 446.48 271.99 446.48 271.99L429.98 223.49L424.48 218.99C424.48 218.99 447.48 200.99 467.48 215.99C487.48 230.99 481.48 262.99 481.48 262.99L485.48 273.99C489.63 277.49 493.85 283.66 497.74 290.42Z" fill="black"/>
<path id="Vector_43" d="M427.48 217.99L449.48 270.99C449.48 270.99 451.48 286.99 461.48 295.99C461.48 295.99 476.48 311.99 478.48 320.99C480.48 329.99 508.48 353.99 508.48 353.99C508.48 353.99 534.48 377.99 536.48 386.99C536.48 386.99 560.48 393.99 557.48 407.99C557.48 407.99 575.48 389.99 557.48 372.99C539.48 355.99 515.48 320.99 515.48 320.99C515.48 320.99 501.48 283.99 488.48 272.99L484.48 261.99C484.48 261.99 490.48 229.99 470.48 214.99C450.48 199.99 427.48 217.99 427.48 217.99Z" fill="#DB8B8B"/>
<path id="Vector_44" opacity="0.1" d="M440.48 596.99L414.48 610.99L406.48 604.99V600.99C415.464 600.352 424.193 597.718 432.03 593.28C434.43 591.92 436.69 590.58 438.5 589.4C439.55 594.03 440.48 596.99 440.48 596.99Z" fill="black"/>
<path id="Vector_45" opacity="0.1" d="M470.48 175.99L484.48 230.99C484.48 230.99 441.48 237.99 432.48 230.99C423.48 223.99 406.48 221.99 406.48 221.99C406.48 221.99 424.48 169.99 434.48 163.99C444.48 157.99 470.48 175.99 470.48 175.99Z" fill="black"/>
<path id="Vector_46" d="M470.48 173.99L484.48 228.99C484.48 228.99 441.48 235.99 432.48 228.99C423.48 221.99 406.48 219.99 406.48 219.99C406.48 219.99 424.48 167.99 434.48 161.99C444.48 155.99 470.48 173.99 470.48 173.99Z" fill="white"/>
<path id="Vector_47" opacity="0.1" d="M541.85 148.49C539.049 152.356 535.487 155.609 531.383 158.047C527.278 160.485 522.718 162.058 517.983 162.669C513.248 163.28 508.439 162.915 503.85 161.598C499.261 160.281 494.99 158.039 491.3 155.01C490.062 151.75 489.128 148.382 488.51 144.95L536.51 136.95C536.51 136.95 542.26 135.34 541.85 148.49Z" fill="black"/>
<path id="Vector_48" d="M548.48 126.99C548.48 136.273 544.793 145.175 538.229 151.739C531.665 158.303 522.763 161.99 513.48 161.99C504.197 161.99 495.295 158.303 488.731 151.739C482.168 145.175 478.48 136.273 478.48 126.99C478.48 126.41 478.48 125.83 478.48 125.25C478.711 115.967 482.62 107.157 489.346 100.756C496.073 94.3555 505.067 90.8893 514.35 91.12C523.633 91.3508 532.443 95.2595 538.844 101.986C545.245 108.713 548.711 117.707 548.48 126.99V126.99Z" fill="#DB8B8B"/>
<path id="Vector_49" opacity="0.1" d="M548.48 126.99C548.483 130.216 548.039 133.426 547.16 136.53C544.455 137.12 541.633 136.861 539.08 135.79C535.34 134.32 532.13 131.79 528.54 129.97C518.43 124.85 506.4 125.86 495.2 127.55C489.64 128.39 483.33 129.17 478.96 125.63C478.81 125.511 478.666 125.385 478.53 125.25C478.761 115.967 482.67 107.157 489.396 100.756C496.123 94.3555 505.117 90.8893 514.4 91.12C523.683 91.3508 532.493 95.2595 538.894 101.986C545.295 108.713 548.761 117.707 548.53 126.99H548.48Z" fill="black"/>
<path id="Vector_50" opacity="0.05" d="M384.98 234.49C384.98 234.49 410.98 241.49 418.98 259.49C426.98 277.49 448.62 280.78 448.62 280.78" fill="black"/>
<path id="Vector_51" d="M482.98 630.49H422.98V649.49H482.98V630.49Z" fill="#6C63FF"/>
<path id="Vector_52" opacity="0.1" d="M482.98 630.49H422.98V649.49H482.98V630.49Z" fill="black"/>
<path id="Vector_53" d="M431.99 595.23C437.36 592.23 442.07 589.23 442.48 587.99C442.48 587.99 456.03 602.29 468.1 606.73C472.159 608.229 476.044 610.16 479.69 612.49C484.47 615.49 491.29 619.02 497.48 619.02C497.48 619.02 511.48 631.02 484.48 633.02C457.48 635.02 394.48 628.02 394.48 628.02L398.48 603.02C410.167 603.705 421.804 601 431.99 595.23Z" fill="#ABB1D1"/>
</g>
<path id="hat" d="M453.16 105.34C455.29 112.02 465.52 112.23 470.77 117.15C473.5 119.71 474.77 123.49 477.77 125.77C481.94 128.95 487.96 128.25 493.27 127.49C503.96 125.97 515.44 125.06 525.08 129.67C528.5 131.3 531.57 133.58 535.14 134.91C538.71 136.24 543.14 136.4 546.04 134.04C548.36 132.15 549.21 129.04 551.31 126.96C552.94 125.32 555.21 124.4 557.07 122.96C561.15 119.88 562.91 114.86 564.07 110.06C566.47 100.18 567.16 89.53 563.07 80.16C558.98 70.79 549.14 63.16 538.4 63.65C535.11 63.8 531.9 64.65 528.62 65.01C520.07 65.88 511.62 63.01 503.04 62.52C500.551 62.2172 498.027 62.5616 495.71 63.52C493.963 64.4908 492.457 65.8406 491.3 67.47C487.372 72.6154 484.682 78.5969 483.44 84.95C482.44 89.74 482.39 94.08 476.52 94.82C469.85 95.7 448.65 91.21 453.16 105.34Z" fill="#472727"/>
<g id="right-wheel">
<path id="Vector_54" d="M679.847 710.78L673.587 612.88L673.457 612.67L667.137 614.87L638.047 699.68L591.797 666.88L665.487 613.47L665.557 613.26L665.977 613.11L670.727 609.66L593.487 566.35L574.557 587.15L577.557 606.65L666.357 608.23V610.23L575.877 608.61L572.477 586.5L598.367 558.05L637.087 512.88L637.777 514.75L645.977 505.75L676.517 511.22V510.01L678.517 510.07V511.58L723.877 519.7L681.547 604.35L675.377 608.82V609.32V609.88L773.187 575.8L761.577 667.01L678.577 614.14L675.657 612.5L724.597 691.39L679.847 710.78ZM675.847 616.44L681.697 707.82L721.747 690.44L675.847 616.44ZM595.277 666.88L637.067 696.51L664.407 616.77L595.277 666.88ZM677.597 611.22L679.687 612.39L760.037 663.59L770.837 578.72L677.597 611.22ZM670.497 604.02L673.007 608.07L673.447 607.75L676.447 513.22L646.707 507.88L638.547 516.88L670.497 604.02ZM595.107 564.97L669.947 606.97L668.647 604.84L637.067 518.57L599.867 559.45L595.107 564.97ZM678.477 513.58L675.477 606.27L679.997 602.99L720.907 521.17L678.477 513.58Z" fill="#535461"/>
<path id="Vector_55" d="M674.757 492C664.144 491.988 653.578 493.415 643.347 496.24C638.071 497.695 632.904 499.523 627.887 501.71C601.157 513.297 579.674 534.387 567.594 560.898C555.514 587.41 553.697 617.459 562.492 645.233C571.287 673.008 590.071 696.533 615.209 711.259C640.348 725.984 670.054 730.863 698.582 724.952C727.109 719.04 752.431 702.759 769.648 679.257C786.865 655.755 794.754 626.702 791.789 597.72C788.823 568.738 775.215 541.885 753.595 522.356C731.975 502.828 703.881 492.012 674.747 492H674.757ZM674.357 698.09C654.076 698.082 634.408 691.137 618.62 678.407C602.831 665.678 591.872 647.931 587.562 628.113C583.252 608.295 585.851 587.599 594.928 569.463C604.004 551.326 619.011 536.84 637.457 528.41C642.149 526.262 647.021 524.532 652.017 523.24C664.229 520.07 676.977 519.537 689.411 521.678C701.845 523.818 713.681 528.581 724.13 535.652C734.58 542.722 743.404 551.937 750.015 562.683C756.627 573.429 760.873 585.46 762.473 597.975C764.073 610.49 762.989 623.202 759.293 635.265C755.598 647.329 749.375 658.467 741.04 667.939C732.704 677.41 722.447 684.998 710.951 690.196C699.455 695.395 686.984 698.086 674.367 698.09H674.357Z" fill="#535461"/>
<path id="Vector_56" d="M674.357 622.06C681.432 622.06 687.167 616.325 687.167 609.25C687.167 602.175 681.432 596.44 674.357 596.44C667.282 596.44 661.547 602.175 661.547 609.25C661.547 616.325 667.282 622.06 674.357 622.06Z" fill="#535461"/>
</g>
</g>
<defs>
<linearGradient id="paint0_linear_2:2" x1="885.072" y1="170.002" x2="64.072" y2="615.002" gradientUnits="userSpaceOnUse">
<stop stop-color="#0F00FF"/>
<stop offset="1" stop-color="#FA00FF"/>
</linearGradient>
<clipPath id="clip0_2:2">
<rect width="1057.7" height="784.98" fill="white"/>
</clipPath>
</defs>
</svg>
